<svg id="Capa_1" enable-background="new 0 0 512 512" height="512" viewBox="0 0 512 512" width="512" xmlns="http://www.w3.org/2000/svg"><g><g><path d="m489.978 360c14.147-31.78 22.022-66.969 22.022-104 0-141.385-114.615-256-256-256s-256 114.615-256 256c0 37.031 7.875 72.22 22.022 104z" fill="#3e4a68"/></g><g><g><path d="m360.644 118.832c19.962-24.564 28.009-49.556 17.907-59.658-8.119-8.119-25.856-4.515-45.258 7.574-4.469-26.607-15.433-45.415-28.252-45.415s-23.783 18.808-28.252 45.415c-19.402-12.089-37.139-15.693-45.258-7.574-10.102 10.102-2.055 35.095 17.907 59.658-10.273 5.254-16.444 11.988-16.444 19.331 0 16.788 32.256 30.397 72.047 30.397s72.047-13.609 72.047-30.397c-.001-7.343-6.171-14.078-16.444-19.331z" fill="#85ae11"/></g></g><g><g><path d="m232.083 138.244c16.544-20.358 23.213-41.071 14.841-49.444-6.729-6.729-21.429-3.742-37.509 6.277-3.704-22.051-12.791-37.639-23.415-37.639s-19.711 15.588-23.414 37.639c-16.08-10.019-30.78-13.006-37.509-6.277-8.372 8.372-1.703 29.086 14.841 49.444-8.514 4.354-13.628 9.936-13.628 16.021 0 13.913 26.733 25.192 59.711 25.192s59.711-11.279 59.711-25.192c-.001-6.085-5.115-11.667-13.629-16.021z" fill="#85ae11"/></g></g><g><g><path d="m410.867 198.981c26.093-2.697 45.456-12.628 45.456-24.468 0-9.516-12.507-17.798-30.962-22.084 12.974-18.212 17.571-35.659 10.059-43.172-7.512-7.512-24.96-2.916-43.172 10.059-4.286-18.455-12.568-30.962-22.084-30.962-11.84 0-21.771 19.362-24.468 45.456-9.099-2.941-16.662-2.611-20.965 1.692-9.838 9.838 1.09 36.717 24.408 60.036s50.197 34.247 60.036 24.408c4.303-4.303 4.633-11.866 1.692-20.965z" fill="#85ae11"/></g></g><g><path d="m326.023 270.023c36.013-36.013 45.651-87.282 27.067-125.957 4.133-14.439 5.724-30.115-2.659-38.497-8.382-8.382-24.059-6.792-38.497-2.659-38.675-18.585-89.945-8.946-125.957 27.067s-45.651 87.282-27.067 125.957c-4.133 14.439-5.724 30.115 2.659 38.497 8.382 8.382 24.059 6.792 38.497 2.659 38.675 18.585 89.945 8.946 125.957-27.067z" fill="#b3e135"/></g><g><path d="m233.451 222.549c-30.927-30.927-37.117-77.22-18.579-114.302-10.277 5.636-20.048 12.883-28.896 21.731-36.013 36.013-45.651 87.282-27.067 125.957-4.133 14.439-5.724 30.115 2.659 38.497 8.382 8.382 24.059 6.792 38.497 2.659 38.675 18.585 89.945 8.946 125.957-27.067 8.848-8.848 16.094-18.619 21.731-28.896-37.082 18.538-83.374 12.348-114.302-18.579z" fill="#94d400"/></g><g><path d="m363.246 135.611c-8.284 0-15 6.716-15 15v60c0 8.284 6.716 15 15 15 8.284 0 15-6.716 15-15v-60c0-8.284-6.716-15-15-15z" fill="#8c4f5c"/></g><g><path d="m363.246 180.611c-8.284 0-15-6.716-15-15v45c0 8.284 6.716 15 15 15s15-6.716 15-15v-45c0 8.284-6.716 15-15 15z" fill="#7b3c47"/></g><g><path d="m451.693 172.829c-28.985-12.006-63.891 2.09-88.447 32.393-24.556-30.303-59.462-44.399-88.447-32.393-38.145 15.8-51.585 70.814-30.019 122.878s69.97 81.461 108.115 65.661c3.685-1.526 7.137-3.423 10.352-5.643 3.215 2.22 6.666 4.117 10.352 5.643 38.145 15.8 86.549-13.597 108.115-65.661 21.564-52.064 8.124-107.078-30.021-122.878z" fill="#ff3345"/></g><g><g><path d="m297.14 295.707c-20.907-50.474-8.913-103.721 26.596-121.321-16.352-6.936-33.485-7.957-48.937-1.557-38.145 15.8-51.585 70.814-30.019 122.878 21.565 52.064 69.97 81.461 108.115 65.661 1.159-.48 2.287-1.009 3.4-1.561-24.01-10.19-46.329-33.136-59.155-64.1z" fill="#e32828"/></g></g><g><path d="m125.096 39.667s10.221 164.272 98.399 212.266c71.235 38.772 165.717 49.652 199.396 52.402 7.475.61 13.634 6.099 15.108 13.453 1.373 6.849-1.627 13.829-7.543 17.544-30.116 18.911-126.149 69.544-233.585 25.659-130.016-53.11-162.959-228.171-94.196-316.83z" fill="#ffcf11"/></g><g><path d="m221.257 250.683.002-.005c-86.113-49.53-96.162-211.011-96.162-211.011l-22.421 4.494c-63.353 81.683-40.372 236.704 65.315 302.127l19.792-34.209c-16.954-9.244-23.205-30.481-13.961-47.435s30.481-23.205 47.435-13.961z" fill="#ff9e00"/></g><g><path d="m112.946 35s-24.667 180.667 60.667 252c68.937 57.627 169.199 90.019 205.185 100.339 7.987 2.291 13.482 9.594 13.482 17.903 0 7.739-4.779 14.668-12.014 17.415-36.831 13.984-152.172 48.074-259.32-22.99-129.667-86-127.333-283.334-33.333-364.667z" fill="#ffe854"/></g><g><path d="m119.064 186.135c-16.708-73.557-6.118-151.135-6.118-151.135h-25.333c-43.944 38.023-67.849 101.397-67.605 166.896 2.098-23.75 20.497-43.652 45.115-46.722 23.412-2.92 45.104 10.301 53.941 30.961z" fill="#ffcf11"/></g><g><path d="m126.311 50h-60c-8.284 0-15-6.716-15-15 0-8.284 6.716-15 15-15h60c8.284 0 15 6.716 15 15 0 8.284-6.716 15-15 15z" fill="#8c4f5c"/></g><g><path d="m96.311 35c0-8.284 6.716-15 15-15h-45c-8.284 0-15 6.716-15 15 0 8.284 6.716 15 15 15h45c-8.284 0-15-6.716-15-15z" fill="#7b3c47"/></g><g><path d="m22.022 360c39.866 89.555 129.625 152 233.978 152s194.112-62.445 233.978-152z" fill="#ceddf7"/></g><g><path d="m82.022 360h-60c39.866 89.555 129.625 152 233.978 152 10.167 0 20.193-.601 30.05-1.753-91.362-10.648-168.033-69.388-204.028-150.247z" fill="#aac5ee"/></g><g><path d="m492 380h-472c-11.046 0-20-8.954-20-20 0-11.046 8.954-20 20-20h472c11.046 0 20 8.954 20 20 0 11.046-8.954 20-20 20z" fill="#ebf0f3"/></g><g><path d="m107.246 360c0-11.046 8.954-20 20-20h-107.246c-11.046 0-20 8.954-20 20s8.954 20 20 20h107.246c-11.046 0-20-8.954-20-20z" fill="#ceddf7"/></g></g></svg>