<svg id="Layer_1" enable-background="new 0 0 512 512" height="512" viewBox="0 0 512 512" width="512" xmlns="http://www.w3.org/2000/svg"><g><circle cx="256" cy="256" fill="#ffe65a" r="256"/><g><circle cx="233.996" cy="245.911" fill="#fff" r="221.416"/></g><g><circle cx="234.016" cy="246.246" fill="#afe6ff" r="183.906"/></g><g><circle cx="234.016" cy="246.246" fill="#fff" r="158.363"/></g><g><g><path d="m337.058 10.708h17.166v424.367h-17.166z" fill="#50555a" transform="matrix(.839 -.544 .544 .839 -65.634 223.958)"/></g><g><path d="m467.763 455.057c-8.458-1.803-16.229-6.825-21.294-14.635-10.131-15.623-5.664-36.576 9.957-46.707 15.623-10.132 36.576-5.666 46.708 9.957 10.13 15.623 5.663 36.575-9.958 46.707l-.001.001c-7.811 5.064-16.955 6.48-25.412 4.677zm10.498-49.242c-4.159-.887-8.654-.19-12.495 2.301-7.681 4.981-9.877 15.284-4.896 22.966 4.981 7.678 15.282 9.875 22.966 4.895 7.68-4.982 9.876-15.284 4.895-22.966-2.491-3.84-6.312-6.31-10.47-7.196z" fill="#50555a"/></g><g><g><path d="m258.417 145.308-16.542-25.508c-4.403-6.789-2.451-15.947 4.339-20.35l25.508-16.543c6.789-4.403 15.947-2.451 20.35 4.339l16.543 25.508c4.403 6.789 2.451 15.947-4.339 20.35l-25.508 16.543c-6.79 4.403-15.947 2.45-20.351-4.339z" fill="#e33442"/></g><g><path d="m252.885 109.737 25.508-16.543c6.789-4.403 15.947-2.451 20.35 4.339l-6.672-10.287c-4.403-6.79-13.561-8.742-20.35-4.339l-25.508 16.543c-6.79 4.403-8.742 13.561-4.339 20.35l6.672 10.287c-4.403-6.789-2.451-15.947 4.339-20.35z" fill="#aa321e"/></g></g><g><g><path d="m379.174 331.504-16.543-25.508c-4.403-6.789-2.451-15.947 4.339-20.35l25.508-16.543c6.789-4.403 15.947-2.451 20.35 4.339l16.543 25.508c4.403 6.789 2.451 15.947-4.339 20.35l-25.508 16.543c-6.789 4.403-15.947 2.451-20.35-4.339z" fill="#e33442"/></g><g><path d="m373.641 295.933 25.508-16.543c6.789-4.403 15.947-2.451 20.35 4.339l-6.672-10.287c-4.403-6.79-13.561-8.742-20.35-4.339l-25.508 16.543c-6.79 4.403-8.742 13.561-4.339 20.35l6.672 10.287c-4.403-6.789-2.45-15.946 4.339-20.35z" fill="#aa321e"/></g></g><g><path d="m285.401 205.494-11.152-17.196c-2.273-3.505-1.275-8.189 2.23-10.462l55.828-36.207c3.505-2.273 8.189-1.274 10.462 2.23l11.152 17.196c2.273 3.505 1.274 8.189-2.23 10.462l-55.828 36.207c-3.505 2.274-8.189 1.275-10.462-2.23z" fill="#97d729"/></g><g><path d="m283.15 188.123 55.828-36.207c3.505-2.273 8.189-1.274 10.462 2.231l-6.672-10.287c-2.273-3.505-6.957-4.504-10.462-2.231l-55.828 36.207c-3.505 2.273-4.503 6.957-2.23 10.462l6.672 10.287c-2.273-3.505-1.275-8.189 2.23-10.462z" fill="#82bd1c"/></g><g><circle cx="349.379" cy="228.657" fill="#ffebb4" r="25.186"/></g><g><path d="m340.345 214.727c10.44-6.771 24.006-4.802 32.172 4.04-.559-1.303-1.208-2.584-2.006-3.814-7.569-11.67-23.165-14.995-34.836-7.427-11.67 7.569-14.996 23.165-7.427 34.836.798 1.23 1.702 2.345 2.664 3.387-4.742-11.063-1.007-24.251 9.433-31.022z" fill="#f0d897"/></g><g><circle cx="435.443" cy="361.36" fill="#ffebb4" r="25.186"/></g><g><path d="m426.409 347.43c10.44-6.771 24.006-4.802 32.172 4.04-.559-1.303-1.208-2.584-2.006-3.814-7.569-11.67-23.165-14.996-34.836-7.427s-14.996 23.165-7.427 34.836c.798 1.23 1.702 2.345 2.664 3.387-4.742-11.062-1.007-24.251 9.433-31.022z" fill="#f0d897"/></g></g><g><path d="m182.686 98.756c-4.67-3.407-7.68-8.721-7.659-14.502.015-4.099-.73-8.217-2.319-12.187-3.106-7.761-8.933-13.707-16.171-17.369-5.553-2.81-9.28-8.211-9.95-14.399-.338-3.116-1.108-6.265-2.345-9.355-6.586-16.454-23.885-25.007-38.637-19.102s-21.372 24.031-14.786 40.485c1.237 3.09 2.852 5.901 4.758 8.389 3.784 4.941 4.814 11.422 2.733 17.288-2.712 7.645-2.827 15.969.28 23.73 1.589 3.97 3.892 7.464 6.731 10.421 4.003 4.17 5.491 10.093 4.462 15.781-1.224 6.767-.662 13.781 1.999 20.428 8.28 20.686 33.696 29.968 56.769 20.733s35.065-33.491 26.785-54.177c-2.663-6.646-7.095-12.111-12.65-16.164z" fill="#97d729"/><path d="m120.418 144.908c-2.661-6.647-3.223-13.662-1.999-20.428 1.029-5.688-.459-11.612-4.462-15.781-2.839-2.957-5.141-6.451-6.731-10.421-3.106-7.761-2.992-16.085-.28-23.73 2.081-5.866 1.051-12.346-2.733-17.288-1.905-2.488-3.521-5.299-4.758-8.39-5.93-14.814-1.151-30.978 10.625-38.363-1.508.308-3.005.747-4.476 1.335-14.752 5.905-21.372 24.031-14.786 40.485 1.237 3.09 2.852 5.901 4.758 8.39 3.784 4.941 4.814 11.422 2.733 17.288-2.712 7.645-2.827 15.969.28 23.73 1.589 3.97 3.892 7.464 6.731 10.421 4.003 4.17 5.491 10.093 4.462 15.781-1.224 6.766-.662 13.781 1.999 20.428 8.28 20.686 33.696 29.968 56.769 20.733 1.458-.584 2.872-1.228 4.239-1.927-21.819 6.485-44.614-2.884-52.371-22.263z" fill="#8bc727"/><g fill="none" stroke="#78a91f" stroke-linecap="round" stroke-miterlimit="10" stroke-width="4.652"><path d="m119.449 46.431 57.571 143.83"/><path d="m131.712 138.469 29.956 13.438"/><path d="m115.002 96.721 29.955 13.438"/><path d="m110.148 60.882 18.387 8.249"/><path d="m181.404 138.621-12.411 30.396"/><path d="m164.693 96.873-12.41 30.396"/><path d="m143.478 67.584-7.618 18.657"/></g></g><g><path d="m142.037 119.094c-5.728-.774-10.905-4.015-13.638-9.108-1.938-3.612-4.553-6.879-7.84-9.614-6.426-5.347-14.38-7.803-22.489-7.579-6.222.173-12.07-2.804-15.605-7.927-1.78-2.58-3.956-4.982-6.515-7.112-13.624-11.336-32.908-10.624-43.071 1.591-10.164 12.215-7.358 31.307 6.266 42.643 2.559 2.129 5.317 3.832 8.177 5.114 5.68 2.545 9.67 7.754 10.632 13.903 1.253 8.014 5.115 15.39 11.541 20.737 3.287 2.735 6.975 4.712 10.88 5.962 5.505 1.762 9.633 6.263 11.436 11.755 2.144 6.534 5.977 12.435 11.481 17.014 17.128 14.251 43.899 10.318 59.794-8.786 15.896-19.104 14.897-46.144-2.23-60.395-5.505-4.581-12.005-7.277-18.819-8.198z" fill="#97d729"/><path d="m109.241 189.321c-5.504-4.58-9.337-10.481-11.481-17.014-1.802-5.492-5.93-9.994-11.436-11.755-3.904-1.249-7.592-3.226-10.88-5.962-6.426-5.347-10.287-12.722-11.541-20.736-.961-6.149-4.952-11.358-10.632-13.903-2.86-1.282-5.619-2.985-8.177-5.114-12.264-10.207-15.755-26.696-8.914-38.797-1.18.989-2.288 2.087-3.301 3.305-10.164 12.215-7.358 31.307 6.266 42.643 2.559 2.129 5.317 3.832 8.177 5.114 5.68 2.545 9.67 7.754 10.632 13.903 1.253 8.014 5.115 15.39 11.541 20.736 3.287 2.735 6.975 4.712 10.88 5.962 5.505 1.762 9.633 6.263 11.436 11.755 2.144 6.534 5.977 12.435 11.481 17.014 17.128 14.251 43.899 10.318 59.794-8.786 1.005-1.208 1.941-2.447 2.811-3.713-16.103 16.089-40.611 18.698-56.656 5.348z" fill="#8bc727"/><g fill="none" stroke="#78a91f" stroke-linecap="round" stroke-miterlimit="10" stroke-width="4.652"><path d="m61.517 103.174 119.091 99.092"/><path d="m116.109 178.282 32.741-2.44"/><path d="m81.542 149.52 32.741-2.44"/><path d="m60.216 120.311 20.097-1.497"/><path d="m159.883 154.764 3.554 32.64"/><path d="m125.317 126.002 3.553 32.639"/><path d="m92.718 110.341 2.181 20.034"/></g></g><g><path d="m168.742 266.703h-35.181l12.876-144.812h22.305z" fill="#aa321e"/><path d="m146.437 121.891c33.134 0 62.227 26.952 75.213 65.628 13.034 38.819 34.957 73.774 63.06 103.405 14.292 15.07 22.706 33.539 22.706 53.495 0 50.778-54.471 91.943-121.665 91.943s-110.492-42.428-121.666-91.943c-32.178-142.578 36.87-222.528 82.352-222.528z" fill="#aa321e"/><path d="m169.938 121.891c33.134 0 62.227 26.952 75.213 65.628 13.034 38.819 34.957 73.774 63.06 103.405 14.292 15.07 22.706 33.539 22.706 53.495 0 50.778-54.471 91.943-121.665 91.943s-110.491-42.428-121.666-91.943c-32.177-142.578 36.87-222.528 82.352-222.528z" fill="#e33442"/><path d="m169.937 150.993c8.819 0 17.755 3.795 25.844 10.974 9.404 8.346 16.936 20.385 21.782 34.815 14.089 41.964 37.482 80.375 69.532 114.169 9.631 10.154 14.721 21.727 14.721 33.469 0 16.043-9.15 31.399-25.763 43.24-17.733 12.639-41.457 19.6-66.802 19.6-26.417 0-48.496-7.64-65.623-22.708-13.799-12.14-23.62-28.668-27.654-46.539-21.827-96.718 8.456-147.984 22.489-165.537 13.557-16.959 26.163-21.483 31.474-21.483m0-10.914c-9.45 0-24.921 6.72-39.999 25.581-15.018 18.785-47.479 73.417-24.61 174.754 8.096 35.87 40.171 77.758 103.922 77.758 57.058 0 103.478-33.086 103.478-73.754 0-14.589-6.126-28.759-17.716-40.979-30.947-32.631-53.525-69.685-67.105-110.132-5.451-16.234-14.055-29.894-24.883-39.504-10.114-8.977-21.555-13.724-33.087-13.724z" fill="#fff"/><circle cx="195.662" cy="341.885" fill="#fff" r="32.692"/><circle cx="195.662" cy="341.885" fill="#aa321e" r="21.938"/><g fill="none" stroke="#fff" stroke-miterlimit="10" stroke-width="10.913"><path d="m247.268 243.658s-29.681 51.389-73.543 52.459c-31.523.769-66.297 13.078-66.297 13.078"/><path d="m227.136 211.889s-64.603-25.961-113.395 0"/><path d="m307.583 349.962s-68.19.154-99.093 22c-30.904 21.845-45.519 28.768-45.519 28.768"/></g></g></g></svg>