<svg id="Layer_1" enable-background="new 0 0 512 512" height="512" viewBox="0 0 512 512" width="512" xmlns="http://www.w3.org/2000/svg"><g><g><circle cx="256" cy="256" fill="#fed402" r="256"/></g><g><g><circle cx="256" cy="256" fill="#fff" r="221.867"/></g><g><g><circle cx="256.02" cy="256.336" fill="#afe6ff" r="184.282"/></g><g><circle cx="256.02" cy="256.336" fill="#fff" r="158.686"/></g><g><g><circle cx="137.428" cy="182.815" fill="#3eaf65" r="97.084"/></g><g><circle cx="137.428" cy="182.815" fill="#fff5aa" r="83.92"/></g><g fill="#dcd732"><path d="m126.106 108.762c-12.24 1.855-23.505 6.67-33.046 13.695-2.466 1.816-2.692 5.426-.527 7.592l30.72 30.72c3.177 3.177 8.61.927 8.61-3.566v-43.444c0-3.069-2.723-5.457-5.757-4.997z"/><path d="m115.383 168.64-30.72-30.72c-2.166-2.166-5.776-1.94-7.592.527-7.026 9.542-11.84 20.806-13.695 33.046-.46 3.034 1.928 5.757 4.997 5.757h43.444c4.493-.001 6.743-5.433 3.566-8.61z"/><path d="m142.993 113.759v43.445c0 4.493 5.432 6.743 8.61 3.566l30.72-30.72c2.166-2.166 1.94-5.776-.527-7.592-9.542-7.026-20.806-11.84-33.047-13.695-3.033-.461-5.756 1.927-5.756 4.996z"/><path d="m111.817 188.38h-43.444c-3.069 0-5.457 2.723-4.997 5.757 1.855 12.24 6.67 23.505 13.695 33.047 1.816 2.466 5.426 2.692 7.592.527l30.72-30.72c3.177-3.179.927-8.611-3.566-8.611z"/><path d="m123.253 204.86-30.72 30.72c-2.166 2.166-1.94 5.776.527 7.592 9.542 7.026 20.806 11.84 33.047 13.695 3.034.46 5.757-1.928 5.757-4.997v-43.444c-.001-4.493-5.433-6.743-8.611-3.566z"/><path d="m159.474 196.989 30.72 30.72c2.166 2.166 5.776 1.94 7.592-.527 7.026-9.542 11.84-20.806 13.695-33.046.46-3.034-1.928-5.757-4.997-5.757h-43.444c-4.493.001-6.743 5.433-3.566 8.61z"/><path d="m163.04 177.249h43.444c3.069 0 5.457-2.723 4.997-5.757-1.855-12.24-6.67-23.505-13.695-33.046-1.816-2.466-5.426-2.692-7.592-.527l-30.72 30.72c-3.177 3.178-.927 8.61 3.566 8.61z"/><path d="m142.993 208.426v43.445c0 3.069 2.723 5.457 5.757 4.997 12.241-1.855 23.505-6.67 33.047-13.695 2.466-1.816 2.692-5.426.527-7.592l-30.721-30.721c-3.177-3.178-8.61-.928-8.61 3.566z"/></g></g><g><path d="m396.164 163.544c-13.948 16.554-36.833 1.374-62.57-20.311s-44.581-41.663-30.633-58.217 55.404-23.415 81.142-1.73c25.736 21.684 26.008 63.704 12.061 80.258z" fill="#fad2b4"/><path d="m316.185 96.158c12.73-15.11 48.373-22.131 74.068-6.754-1.865-2.171-3.906-4.226-6.151-6.119-25.737-21.685-67.194-14.824-81.141 1.73-13.948 16.554 4.896 36.532 30.633 58.217 2.246 1.892 4.468 3.731 6.667 5.507-22.214-19.508-36.806-37.471-24.076-52.581z" fill="#faa073"/><path d="m373.299 169.179c6.111-15.796 3.195-41.808-14.079-56.363-17.274-14.554-43.403-13.014-57.934-4.312 3.78 7.456 10.796 15.315 19.533 23.476-14.804 10.244-29.715 23.374-34.247 28.753-8.784 10.425-7.453 25.997 2.972 34.78 10.425 8.784 25.997 7.453 34.781-2.972 4.532-5.379 14.943-22.302 22.526-38.63 9.524 7.228 18.459 12.808 26.448 15.268z" fill="#fabe9b"/><g fill="#faa073"><path d="m297.592 170.019c4.532-5.379 19.443-18.51 34.248-28.753-8.737-8.161-15.752-16.02-19.533-23.476 12.955-7.759 35.124-9.813 52.023.144-1.542-1.82-3.237-3.54-5.11-5.118-17.274-14.554-43.403-13.014-57.934-4.312 3.78 7.456 10.796 15.315 19.533 23.476-14.804 10.244-29.715 23.374-34.247 28.753-8.784 10.425-7.453 25.997 2.972 34.78 1.917 1.615 4.01 2.886 6.201 3.823-5.75-8.875-5.321-20.809 1.847-29.317z"/><path d="m346.85 153.913-15.01-12.647-7.955 5.76z"/></g></g><g><path d="m329.54 458.228h-37.991v21.302h58.831v-.463c-.001-11.509-9.331-20.839-20.84-20.839z" fill="#fd4755"/><path d="m242.266 393.555c0-27.094 21.964-49.057 49.057-49.057h16.83c44.741 0 81.01-36.27 81.01-81.01h-126.06c-59.658 0-108.021 48.363-108.021 108.021 0 59.658 48.363 108.021 108.021 108.021h28.445v-36.918h-.225c-27.093 0-49.057-21.963-49.057-49.057z" fill="#fe99a0"/><g fill="#fe646f"><path d="m177.608 371.509c0-59.659 48.363-108.021 108.021-108.021h-22.526c-59.658 0-108.021 48.363-108.021 108.021 0 59.658 48.363 108.021 108.021 108.021h22.526c-59.658 0-108.021-48.363-108.021-108.021z"/><path d="m350.379 442.605h-58.831v21.302h37.991c11.509 0 20.84-9.33 20.84-20.84z"/><path d="m389.163 263.488h-101.826v81.185h22.404c43.864 0 79.422-35.558 79.422-79.422z"/></g><g><path d="m365.537 334.825h-40.928v-10.012h40.928c23.943 0 43.421-19.478 43.421-43.421s-19.478-43.422-43.421-43.422h-73.303c-20.999 0-38.084-17.085-38.084-38.084h10.012c0 15.479 12.592 28.073 28.071 28.073h73.303c29.463 0 53.433 23.97 53.433 53.433s-23.969 53.433-53.432 53.433z" fill="#fe646f"/></g><path d="m242.266 393.555c0-2.18.157-4.321.432-6.426l-71.449 41.216c4.187 6.753 9.098 13.007 14.624 18.657 11.348 11.602 29.215 13.844 43.273 5.735 15.01-8.659 21.487-26.754 15.811-43.126-1.744-5.029-2.691-10.431-2.691-16.056z" fill="#fe646f"/><path d="m219.165 456.629c-12.974-10.145-23.586-23.169-30.828-38.14l-17.088 9.857c0 .001.001.001.001.002 1.005 1.621 2.057 3.209 3.144 4.771.126.182.257.36.385.541.984 1.396 2 2.769 3.048 4.115.166.213.333.425.5.636 1.059 1.339 2.148 2.653 3.267 3.94.141.163.281.327.423.489 1.243 1.412 2.518 2.794 3.833 4.139.01.01.019.02.028.03 8.789 8.981 21.479 12.322 33.287 9.62z" fill="#fd4755"/><path d="m196.304 286.651c-.132.104-.264.209-.396.313-20.264 16.127-19.27 47.276 1.68 62.501l7.012 5.096c17.107 12.432 40.388 12.452 57.298-.248 4.854-3.645 10.406-6.411 16.421-8.061z" fill="#fe646f"/><path d="m184.583 333.302c5.379-14.217 13.662-27.001 24.14-37.626l-12.418-9.025c-.132.104-.264.209-.396.314-14.495 11.535-18.108 30.755-11.326 46.337z" fill="#fd4755"/><circle cx="315.531" cy="290.179" fill="#554e56" r="10.717"/></g></g></g></g></svg>