<svg height="512" viewBox="0 0 512 512" width="512" xmlns="http://www.w3.org/2000/svg"><g id="Flat"><path d="m376 104 31.71574-31.71574a28.28425 28.28425 0 0 1 20-8.28426 28.28425 28.28425 0 0 1 28.28426 28.28424v11.14727a136.56841 136.56841 0 0 1 -40 96.56849v48l32-32a136.56841 136.56841 0 0 0 40-96.56845v-31.43155a56 56 0 0 0 -56-56h-20.28428a28.28425 28.28425 0 0 0 -20 8.28426l-23.71572 23.71574z" fill="#a0eaff"/><path d="m442.89014 367.71-42.63014 100.76a31.99181 31.99181 0 0 1 -29.47 19.53h-125.58a31.99181 31.99181 0 0 1 -29.47-19.53l-42.63014-100.76a196.3399 196.3399 0 0 1 8.78028-171.16 199.74692 199.74692 0 0 0 14.48-159.44l-4.37014-13.11h200v44.69a199.43514 199.43514 0 0 0 6.71 51.31q2.14527 8.09994 4.98 16a199.26462 199.26462 0 0 0 13.04 28.96l3.66016 6.65 13.71972 24.94a196.37445 196.37445 0 0 1 8.78026 171.16z" fill="#65dcff"/><path d="m403.68994 136h-123.68994v-16h118.71q2.14523 8.09994 4.97994 16z" fill="#57c1ff"/><path d="m304 24-21.1499 47.59a15.87305 15.87305 0 0 1 -14.17017 9.48l-12.67993-57.07z" fill="#57c1ff"/><path d="m268.67993 81.07a15.74051 15.74051 0 0 1 -13.07983-6.16l-39.6001-50.91h40z" fill="#a0eaff"/><path d="m442.89014 367.71-42.63014 100.76a31.99181 31.99181 0 0 1 -29.47 19.53h-125.58a31.99181 31.99181 0 0 1 -29.47-19.53l-42.63014-100.76a196.32255 196.32255 0 0 1 -12.17993-112.64l35.07007-35.07a62.23836 62.23836 0 0 1 88 0 62.22637 62.22637 0 0 0 88 0l48.39014-48.39 13.71972 24.94a196.37445 196.37445 0 0 1 8.78028 171.16z" fill="#e6e6e6"/><path d="m248 120h16v16h-16z" fill="#57c1ff"/><path d="m464 360.00005v-.00005a158.53306 158.53306 0 0 0 -26.62558-87.93832v-.00008a25.6888 25.6888 0 0 0 -42.74874 0v.00008a158.53306 158.53306 0 0 0 -26.62568 87.93832v.0001a48 48 0 0 0 48 48h.0001a48 48 0 0 0 47.9999-48.00005z" fill="#fff1d8"/><path d="m432 416v40l16.47 3.29a29.29651 29.29651 0 0 1 23.53 28.71h-112a29.28594 29.28594 0 0 1 23.53-28.71l16.47-3.29v-40a49.75225 49.75225 0 0 1 -40-48.79v-23.21h112v23.21a49.75072 49.75072 0 0 1 -40 48.79z" fill="#dc9265"/><path d="m432 416v40l16.47 3.29a29.29651 29.29651 0 0 1 23.53 28.71h-88l60.56006-6.84009a7.20312 7.20312 0 0 0 4.87988-11.62991c-.03-.03-.0498-.06006-.08008-.09009a29.20918 29.20918 0 0 0 -16.88986-10.14991l-16.47-3.29v-40a49.75072 49.75072 0 0 0 40-48.79v-23.21h16v23.21a49.75072 49.75072 0 0 1 -40 48.79z" fill="#ad693d"/><path d="m328 456a32.00409 32.00409 0 0 1 -32 32h-240a31.87085 31.87085 0 0 1 -21.16992-8c-.5-.43994-.99-.9-1.46-1.37a31.89975 31.89975 0 0 1 -9.37008-22.63z" fill="#dc9265"/><path d="m329.14014 376a112.77983 112.77983 0 0 1 -33.14014 80h-248v-160h248a112.77963 112.77963 0 0 1 33.14014 80z" fill="#f2e368"/><g fill="#eacf4d"><circle cx="152" cy="408" r="16"/><circle cx="96" cy="368" r="16"/><circle cx="168" cy="344" r="16"/><circle cx="288" cy="360" r="8"/><circle cx="232" cy="328" r="8"/><circle cx="120" cy="328" r="8"/><circle cx="88" cy="424" r="8"/><circle cx="192" cy="384" r="8"/><circle cx="248" cy="400" r="24"/><path d="m329.14014 376a112.77983 112.77983 0 0 1 -33.14014 80h-248v-20.57007h180.42993c43.15015 0 79.07007-34.1499 80.1001-77.28992.02-.9.03-1.81.03-2.71008a112.90016 112.90016 0 0 0 -16.84003-59.42993h4.28a112.77963 112.77963 0 0 1 33.14014 80z"/></g><path d="m328 456a32.00409 32.00409 0 0 1 -32 32h-240a31.87085 31.87085 0 0 1 -21.16992-8h237.16992a32.012 32.012 0 0 0 30.99-24z" fill="#ad693d"/></g></svg>