<svg id="Flat" height="512" viewBox="0 0 512 512" width="512" xmlns="http://www.w3.org/2000/svg"><path d="m296 456h-256s-16-128-16-200 16-200 16-200h256s16 128 16 200-16 200-16 200z" fill="#3397e8"/><path d="m280 256c0 38.26-4.78 93.79-9.07 136h-205.86c-4.29-42.21-9.07-97.74-9.07-136 0-16.32.87-35.78 2.2-56h219.6c1.33 20.22 2.2 39.68 2.2 56z" fill="#e9eef2"/><path d="m296 56h-256l-16-32h288z" fill="#266fab"/><path d="m40 456h256l16 32h-288z" fill="#266fab"/><path d="m200 232h32v32h-32z" fill="#f78a25"/><path d="m207.029 303.029h33.941v33.941h-33.941z" fill="#ffd33a" transform="matrix(.707 -.707 .707 .707 -160.666 252.118)"/><circle cx="168" cy="360" fill="#b1bd70" r="16"/><path d="m120 344-16-8-8-40 24-24 24 24z" fill="#88c791"/><path d="m150.31 264.844a24 24 0 1 0 -46.31-8.844c0 .465.017.927.043 1.385a24 24 0 1 0 15.957 22.615c0-.465-.017-.927-.043-1.385q.852.3 1.733.541a24 24 0 1 0 28.62-14.312z" fill="#35a872"/><path d="m211.314 128 10.343-10.343a8 8 0 0 0 -11.314-11.314l-13.657 13.657h-12.686v-12.686l13.657-13.657a8 8 0 0 0 -11.314-11.314l-10.343 10.344-10.343-10.344a8 8 0 0 0 -11.314 11.314l13.657 13.657v12.686h-12.686l-13.657-13.657a8 8 0 0 0 -11.314 11.314l10.343 10.343-10.343 10.343a8 8 0 0 0 11.314 11.314l13.657-13.657h12.686v12.686l-13.657 13.657a8 8 0 0 0 11.314 11.314l10.343-10.344 10.343 10.344a8 8 0 0 0 11.314-11.314l-13.657-13.657v-12.686h12.686l13.657 13.657a8 8 0 0 0 11.314-11.314z" fill="#e9eef2"/><path d="m232 184h256v304h-256z" fill="#eb423f" transform="matrix(-1 0 0 -1 720 672)"/><path d="m264 216h192v240h-192z" fill="#35a872" transform="matrix(-1 0 0 -1 720 672)"/><path d="m456 394.208c-23.454 18.269-57.77 29.792-96 29.792s-72.546-11.523-96-29.792v-2.208l96-160 96 160" fill="#d4a811"/><path d="m440.1 365.5c-20.33 16.35-48.71 26.5-80.1 26.5s-59.77-10.15-80.1-26.5l80.1-133.5z" fill="#d4a811"/><path d="m440.1 365.5c-20.33 16.35-48.71 26.5-80.1 26.5s-59.77-10.15-80.1-26.5l80.1-133.5z" fill="#ffd33a"/><circle cx="344" cy="344" fill="#eb423f" r="16"/><circle cx="360" cy="296" fill="#414649" r="8"/><path d="m400.006 360a8 8 0 0 1 -7.161-4.424l-8-16a8 8 0 0 1 14.31-7.156l8 16a8 8 0 0 1 -7.149 11.58z" fill="#35a872"/></svg>