<svg id="Flat" height="512" viewBox="0 0 512 512" width="512" xmlns="http://www.w3.org/2000/svg"><path d="m352 176h-208v304h208z" fill="#ad6643"/><path d="m280 232.617c0-31.269-57.308-56.617-128-56.617s-128 25.348-128 56.617c0 14.357 12.088 27.464 32 37.444v177.939h192v-177.939c19.912-9.98 32-23.087 32-37.444z" fill="#fbe9d8"/><path d="m216 232a7.962 7.962 0 0 1 -2.942-.564c-16.7-6.61-38.382-10.251-61.056-10.251s-44.357 3.641-61.056 10.251a8 8 0 1 1 -5.888-14.876c18.527-7.335 42.3-11.375 66.944-11.375s48.417 4.04 66.944 11.375a8 8 0 0 1 -2.946 15.44z" fill="#f0dfce"/><path d="m112 488h-58.953c-13.277 0-23.235-12.4-20.631-25.7 5.273-26.92 28.426-46.3 55.316-46.3h24.268z" fill="#f7b030"/><path d="m416 488c39.765 0 72-103.87 72-232s-32.235-232-72-232h-32v464z" fill="#ad6643"/><path d="m456 256c0 128.13-32.24 232-72 232-26.59 0-49.82-46.46-62.29-115.56q-1.4-7.77-2.62-15.9a682.324 682.324 0 0 1 -7.07-94.74c-.01-1.93-.02-3.86-.02-5.8q0-5.445.08-10.83a678.283 678.283 0 0 1 6.75-87.92q1.305-8.9 2.82-17.35c12.46-69.29 35.72-115.9 62.35-115.9 39.76 0 72 103.87 72 232z" fill="#c48669"/><g fill="#d49073"><path d="m399.59 258.53a8 8 0 0 1 -10.12 5.06 134.084 134.084 0 0 0 -77.45-1.79c-.01-1.93-.02-3.86-.02-5.8q0-5.445.08-10.83a149.124 149.124 0 0 1 82.45 3.24 8 8 0 0 1 5.06 10.12z"/><path d="m407.59 153.64a8 8 0 0 1 -10.12 5.06 133.926 133.926 0 0 0 -78.64-1.45q1.305-8.9 2.82-17.35a149.258 149.258 0 0 1 80.88 3.62 8 8 0 0 1 5.06 10.12z"/><path d="m407.59 369.64a8 8 0 0 1 -10.12 5.06 134.2 134.2 0 0 0 -75.76-2.26q-1.4-7.77-2.62-15.9a149.038 149.038 0 0 1 83.44 2.98 8 8 0 0 1 5.06 10.12z"/></g><path d="m176 488h-76.639c-17.26 0-30.206-19.293-26.821-39.972 6.86-41.881 36.954-72.028 71.912-72.028h31.548z" fill="#e09f2c"/><path d="m288 488h58.953c13.277 0 23.235-12.4 20.631-25.7-5.273-26.924-28.426-46.3-55.316-46.3h-24.268z" fill="#f7b030"/><path d="m224 488h76.639c17.26 0 30.206-19.293 26.821-39.972-6.86-41.881-36.954-72.028-71.912-72.028h-31.548z" fill="#e09f2c"/><path d="m253.05 488h-106.1a16 16 0 0 1 -15.658-12.711l-9.6-45.706c-8.819-41.982 17.726-83.212 59-91.632a96.614 96.614 0 0 1 38.626 0c41.269 8.42 67.814 49.65 59 91.632l-9.6 45.706a16 16 0 0 1 -15.668 12.711z" fill="#f7b030"/></svg>