<svg id="Capa_1" enable-background="new 0 0 512 512" height="512" viewBox="0 0 512 512" width="512" xmlns="http://www.w3.org/2000/svg"><g><g><g><g><g><path d="m240.926 248.308-48.965-22.961-108.334 231.031c-2.944 6.277 2.528 13.226 9.321 11.837l46.521-9.513 3.431-2.542c.133-.027 98.026-207.852 98.026-207.852z" fill="#b5e245"/><path d="m238.631 247.232-99.162 211.47 2.677-.547c3.611-.738 7.283.955 9.066 4.18l25.052 45.314c3.33 6.024 12.087 5.733 15.009-.5l108.447-231.271z" fill="#a8d340"/><path d="m262.441 252.357-50.16 23.521 108.448 231.271c2.922 6.232 11.678 6.524 15.009.5l22.994-41.591s.444-7.332.464-7.367z" fill="#b5e245"/><path d="m428.373 456.378-108.334-231.03-60.811 28.515 99.502 212.195 2.058-3.723c1.783-3.225 5.455-4.918 9.066-4.18l49.198 10.06c6.793 1.389 12.265-5.56 9.321-11.837z" fill="#a8d340"/></g><g><path d="m281.089 13.255 5.651 8.282c8.464 12.406 24.725 16.763 38.258 10.251l9.035-4.347c19.279-9.276 41.85 3.755 43.455 25.089l.753 9.998c1.127 14.976 13.031 26.88 28.007 28.007l9.998.753c21.334 1.606 34.365 24.177 25.089 43.455l-4.347 9.035c-6.512 13.533-2.155 29.794 10.251 38.258l8.282 5.651c17.673 12.058 17.673 38.12 0 50.178l-8.282 5.651c-12.406 8.464-16.763 24.725-10.251 38.258l4.347 9.035c9.276 19.279-3.755 41.85-25.089 43.455l-9.998.753c-14.976 1.127-26.88 13.031-28.007 28.007l-.753 9.998c-1.606 21.334-24.177 34.365-43.455 25.089l-9.035-4.347c-13.533-6.512-29.794-2.155-38.258 10.251l-5.651 8.282c-12.058 17.673-38.12 17.673-50.178 0l-5.651-8.282c-8.464-12.406-24.725-16.763-38.258-10.251l-9.035 4.347c-19.279 9.276-41.85-3.755-43.455-25.089l-.753-9.998c-1.127-14.976-13.031-26.88-28.007-28.007l-9.998-.753c-21.334-1.606-34.365-24.177-25.089-43.455l4.347-9.035c6.512-13.533 2.155-29.794-10.251-38.258l-8.282-5.651c-17.673-12.058-17.673-38.12 0-50.178l8.282-5.651c12.406-8.464 16.763-24.725 10.251-38.258l-4.347-9.035c-9.276-19.279 3.755-41.85 25.089-43.455l9.998-.753c14.976-1.127 26.88-13.031 28.007-28.007l.753-9.998c1.606-21.334 24.177-34.365 43.455-25.089l9.035 4.347c13.533 6.512 29.794 2.155 38.258-10.251l5.651-8.282c12.058-17.673 38.12-17.673 50.178 0z" fill="#c6e873"/><circle cx="256" cy="212.775" fill="#f2f9ff" r="142.95"/><path d="m256 69.824c-11.592 0-22.858 1.39-33.65 3.994 62.71 15.132 109.3 71.599 109.3 138.956s-46.59 123.824-109.3 138.956c10.792 2.604 22.058 3.994 33.65 3.994 78.949 0 142.95-64.001 142.95-142.95s-64.001-142.95-142.95-142.95z" fill="#e2f4ff"/></g></g><g><g><g><path d="m258.477 131.803c-1.199-1.729-3.756-1.729-4.955 0-11.781 16.988-59.188 93.179-.766 143.862h6.487c58.421-50.683 11.015-126.874-.766-143.862z" fill="#c6e873"/></g><g><g><path d="m255.999 267.767c-.005-62.38-72.22-79.167-89.428-82.281-1.806-.327-3.383 1.25-3.056 3.056 2.783 15.38 16.497 74.69 63.916 87.123h28.569v-7.898z" fill="#b5e245"/></g><g><path d="m348.483 188.542c.327-1.806-1.25-3.383-3.056-3.056-17.208 3.114-89.423 19.901-89.428 82.281v7.898h28.568c47.419-12.434 61.133-71.743 63.916-87.123z" fill="#b5e245"/></g></g></g></g></g></g><g><path d="m340.983 283.39h-169.966c-4.267 0-7.726-3.459-7.726-7.726s3.459-7.726 7.726-7.726h169.966c4.267 0 7.726 3.459 7.726 7.726s-3.459 7.726-7.726 7.726z" fill="#a8d340"/></g></g></svg>